<svg version="1.1" id="Layer_1" xmlns="http://www.w3.org/2000/svg" xmlns:xlink="http://www.w3.org/1999/xlink" x="0px" y="0px"
	 width="100%" viewBox="0 0 1609 191" enable-background="new 0 0 1609 191" xml:space="preserve">

<path fill="#020202" opacity="1.000000" stroke="none" 
	d="
M1128.354492,157.619995 
	C1079.983032,128.025833 1031.917114,98.629845 983.815735,69.292259 
	C979.427124,66.615578 974.894714,64.140579 970.277466,61.881866 
	C965.040100,59.319794 962.795227,60.431458 962.008972,66.086739 
	C961.323853,71.013847 960.914978,76.018723 960.890991,80.991692 
	C960.778381,104.318672 960.890198,127.646652 960.818176,150.973953 
	C960.786499,161.236435 954.299255,168.764908 944.352173,170.446640 
	C935.483704,171.946030 926.286499,166.634216 923.426697,158.035431 
	C922.553101,155.408752 922.217712,152.491058 922.210876,149.705231 
	C922.130127,117.046883 922.121277,84.388222 922.176514,51.729774 
	C922.200684,37.469818 927.883789,26.044613 940.585999,19.169529 
	C953.145081,12.371930 965.876953,13.273202 978.042419,20.702328 
	C1029.249512,51.973270 1080.418457,83.306969 1131.641113,114.552246 
	C1137.164429,117.921455 1142.844238,121.073486 1148.642456,123.939720 
	C1153.069092,126.127937 1155.182495,124.966507 1155.972290,120.036942 
	C1156.679932,115.620850 1157.088379,111.109879 1157.108643,106.638412 
	C1157.215942,82.978119 1157.102539,59.316898 1157.181396,35.656387 
	C1157.224121,22.875221 1165.646240,14.387855 1177.550781,14.847620 
	C1187.521973,15.232722 1195.733887,23.082932 1195.779297,33.083385 
	C1195.936646,67.740700 1196.361694,102.409645 1195.668701,137.053833 
	C1195.134644,163.756607 1165.304932,179.316925 1141.861938,165.858078 
	C1137.394897,163.293488 1133.051147,160.514236 1128.354492,157.619995 
z"/>
<path fill="#030303" opacity="1.000000" stroke="none" 
	d="
M1404.823975,57.662636 
	C1391.593384,66.116325 1388.730469,79.049294 1388.571533,92.983276 
	C1388.348999,112.474213 1388.584717,131.969955 1388.483521,151.462906 
	C1388.437988,160.256073 1383.490601,167.296234 1375.890991,170.006989 
	C1368.000122,172.821655 1359.173828,170.917267 1354.223755,164.350342 
	C1351.851685,161.203583 1349.771973,156.903671 1349.718262,153.095505 
	C1349.400879,130.617828 1349.056396,108.099442 1350.132812,85.662476 
	C1350.591553,76.098068 1354.453247,66.694473 1356.801880,57.226051 
	C1357.106934,55.996510 1357.611938,54.816593 1358.175171,53.173393 
	C1355.928101,53.173393 1354.139282,53.173393 1352.350464,53.173393 
	C1318.528442,53.173393 1284.702515,52.880531 1250.886597,53.334656 
	C1239.288696,53.490406 1230.023438,44.417946 1230.130005,33.818096 
	C1230.243774,22.513670 1238.820435,14.175300 1250.814453,14.171396 
	C1329.621460,14.145744 1408.428345,14.143451 1487.235352,14.175335 
	C1498.058716,14.179713 1505.889282,20.729889 1507.635132,30.942837 
	C1509.191895,40.049046 1503.457153,49.338394 1494.214844,52.293427 
	C1492.053345,52.984535 1489.644531,53.129574 1487.348389,53.136173 
	C1466.189087,53.196980 1445.021484,52.852421 1423.874512,53.368526 
	C1417.596313,53.521751 1411.375366,56.024879 1404.823975,57.662636 
z"/>
<path fill="#020202" opacity="1.000000" stroke="none" 
	d="
M625.547363,149.484787 
	C626.727234,146.181824 627.294006,142.863617 629.080200,140.446533 
	C657.262451,102.308952 685.503174,64.213501 713.944214,26.268599 
	C729.164673,5.961970 758.178162,1.150942 779.068787,15.412411 
	C783.381104,18.356340 787.312256,22.259071 790.464050,26.439913 
	C818.610046,63.775410 846.542969,101.271591 874.535889,138.722473 
	C881.959534,148.654251 880.723999,160.636261 871.587646,167.410583 
	C862.379578,174.238083 850.810303,172.066040 843.245239,161.978989 
	C817.586182,127.765884 791.990906,93.504890 766.278503,59.332020 
	C763.697815,55.902176 760.619751,52.809902 757.532471,49.807930 
	C754.268066,46.633770 750.576111,46.701416 747.329407,49.811378 
	C744.582642,52.442394 741.993652,55.299683 739.700134,58.333046 
	C713.606812,92.843056 687.595276,127.414848 661.533630,161.948898 
	C655.167542,170.384491 647.218567,173.148071 638.477661,170.125015 
	C629.947937,167.174988 625.582458,160.367035 625.547363,149.484787 
z"/>
<path fill="#020202" opacity="1.000000" stroke="none" 
	d="
M108.244476,159.747314 
	C79.927345,121.877724 51.828495,84.292343 23.744682,46.695732 
	C16.846773,37.461308 17.280836,26.759563 24.783890,19.611532 
	C33.406544,11.396881 46.562424,12.466156 54.087772,22.309467 
	C65.002350,36.585964 75.677635,51.045464 86.449409,65.431076 
	C101.708221,85.809074 116.922806,106.220406 132.258636,126.540253 
	C134.651947,129.711380 137.407410,132.666733 140.317001,135.376572 
	C144.224442,139.015762 147.594482,139.247406 151.218445,135.270798 
	C157.028458,128.895416 162.402283,122.091827 167.612732,115.206100 
	C190.809814,84.550606 213.866745,53.789101 237.010544,23.093203 
	C245.306061,12.090703 259.164886,11.107524 267.962219,20.804142 
	C274.043579,27.507156 274.509705,38.062943 269.210114,45.181095 
	C241.585098,82.285759 213.968750,119.396950 186.412552,156.552719 
	C170.532181,177.965210 144.166702,184.544128 122.452919,171.847321 
	C117.262291,168.812164 113.102295,164.014435 108.244476,159.747314 
z"/>
<path fill="#020202" opacity="1.000000" stroke="none" 
	d="
M551.073486,148.089279 
	C543.756775,158.266602 536.563782,167.905670 525.036377,173.417770 
	C505.081848,182.959534 480.302979,177.722610 467.020264,160.123642 
	C438.351685,122.139069 409.910614,83.982513 381.448883,45.842293 
	C374.438660,36.448215 376.153351,24.644087 385.203552,17.992432 
	C394.148560,11.418103 405.867310,13.378063 412.889771,22.740221 
	C438.954285,57.488594 464.955994,92.284142 491.069946,126.995239 
	C493.451050,130.160202 496.360565,132.956573 499.213318,135.730087 
	C502.549011,138.973099 506.329468,138.812653 509.386902,135.596207 
	C513.496460,131.272980 517.344482,126.660637 520.944336,121.899864 
	C545.734192,89.115440 570.457520,56.280582 595.135132,23.411497 
	C600.673035,16.035362 607.606018,12.672267 616.814331,14.928395 
	C629.737549,18.094738 635.736450,34.183468 627.821411,44.856667 
	C602.350952,79.202805 576.791931,113.483246 551.073486,148.089279 
z"/>
<path fill="#060606" opacity="1.000000" stroke="none" 
	d="
M339.445740,20.583439 
	C343.351135,24.700037 344.549408,29.383945 344.545044,34.575329 
	C344.512421,73.408035 344.554108,112.240822 344.510864,151.073517 
	C344.497955,162.651062 336.531952,170.965805 325.487366,171.174225 
	C314.163483,171.387894 305.565094,163.212692 305.524750,151.502258 
	C305.389740,112.336662 305.444214,73.170265 305.495697,34.004265 
	C305.507141,25.290924 309.664978,18.922430 317.687531,15.682153 
	C325.690460,12.449824 333.030334,14.118723 339.445740,20.583439 
z"/>
<path fill="#050505" opacity="1.000000" stroke="none" 
	d="
M1544.316772,160.437958 
	C1543.467529,156.700302 1542.251099,153.299896 1542.239014,149.895218 
	C1542.103394,111.729713 1542.121826,73.563522 1542.172974,35.397629 
	C1542.188232,24.001715 1548.479736,16.236303 1558.865601,14.416900 
	C1567.899902,12.834292 1577.120850,18.154772 1580.171875,27.081310 
	C1581.117554,29.848293 1581.460938,32.944031 1581.467407,35.890591 
	C1581.550293,73.723053 1581.360840,111.556747 1581.592896,149.387970 
	C1581.702026,167.184967 1566.401611,174.636948 1555.224976,169.844894 
	C1551.112427,168.081558 1548.050171,163.868713 1544.316772,160.437958 
z"/>
<path fill="#0678A8" opacity="1.000000" stroke="none" 
	d="
M742.259094,162.992447 
	C732.909058,158.055466 727.942383,150.673996 728.042725,140.371109 
	C728.132385,131.165390 732.330383,124.071892 740.277039,119.442940 
	C749.762756,113.917511 761.990662,115.641846 769.728577,123.344757 
	C777.432983,131.014267 779.145569,143.498138 773.768921,152.795563 
	C768.195679,162.432861 757.258911,167.058838 746.406677,164.338715 
	C745.124023,164.017212 743.882202,163.532745 742.259094,162.992447 
z"/>
</svg>